<svg xmlns="http://www.w3.org/2000/svg" xmlns:xlink="http://www.w3.org/1999/xlink" width="70" height="60" viewBox="0 0 70 60">
  <defs>
    <clipPath id="clip-path">
      <rect id="Rectangle_62" data-name="Rectangle 62" width="70" height="60" fill="#fff" stroke="#707070" stroke-width="1"/>
    </clipPath>
  </defs>
  <g id="Mask_Group_38" data-name="Mask Group 38" clip-path="url(#clip-path)">
    <g id="_082---House-Sold" data-name="082---House-Sold" transform="translate(2.254)">
      <path id="Shape" d="M62.183,50.021v-19a5.456,5.456,0,0,0,5.133-3.288A4.738,4.738,0,0,0,65.7,22.186l-27.283-21a5.9,5.9,0,0,0-7.028,0L4.1,22.186A4.738,4.738,0,0,0,2.484,27.73a5.456,5.456,0,0,0,5.133,3.288v19a5.71,5.71,0,0,0-5.457,5.5v3.5a1.049,1.049,0,0,0,1.091,1h63.3a1.049,1.049,0,0,0,1.091-1v-3.5a5.71,5.71,0,0,0-5.457-5.5ZM5.107,27.947a2.837,2.837,0,0,1-.755-2.192,2.93,2.93,0,0,1,1.159-2.039l27.283-21a3.122,3.122,0,0,1,2.106-.7,3.46,3.46,0,0,1,2.183.72l27.283,21a2.93,2.93,0,0,1,1.159,2.039,2.837,2.837,0,0,1-.755,2.192,3.593,3.593,0,0,1-4.616.37L35.6,9.474a1.169,1.169,0,0,0-1.4,0L9.723,28.317a3.593,3.593,0,0,1-4.616-.37ZM21.8,58.022H4.343v-2.5a3.671,3.671,0,0,1,3.82-3.5,3.671,3.671,0,0,1,3.82,3.5,1.1,1.1,0,0,0,2.183,0v-3a3.671,3.671,0,0,1,3.82-3.5,3.671,3.671,0,0,1,3.82,3.5Zm24.009-5.5v5.5H23.987v-5.5a5.7,5.7,0,0,0-5.377-5.468,5.964,5.964,0,0,0-6.5,4.328A6.2,6.2,0,0,0,9.8,50.251V30.577c1.091-.44-.928,1,25.1-19,26.039,20,24.009,18.593,25.1,19V50.251a6.278,6.278,0,0,0-2.3,1.12,5.981,5.981,0,0,0-6.5-4.291A5.718,5.718,0,0,0,45.813,52.521Zm19.644,5.5H48v-5.5a3.834,3.834,0,0,1,7.639-.1v3.1a1.1,1.1,0,0,0,2.183,0,3.834,3.834,0,0,1,7.639,0Z" transform="translate(-2.154 -0.022)" fill="#fff"/>
      <path id="Shape-2" data-name="Shape" d="M67.459,72.512v-10a4.2,4.2,0,0,0-4.365-4H32.537a4.2,4.2,0,0,0-4.365,4v10a4.2,4.2,0,0,0,4.365,4H63.094A4.2,4.2,0,0,0,67.459,72.512Zm-2.183,0a2.1,2.1,0,0,1-2.183,2H32.537a2.1,2.1,0,0,1-2.183-2v-10a2.1,2.1,0,0,1,2.183-2H63.094a2.1,2.1,0,0,1,2.183,2Z" transform="translate(-15.069 -31.516)" fill="#fff"/>
      <path id="Shape-3" data-name="Shape" d="M38.492,69.17c.873,0,1.637.47,1.637,1a1.049,1.049,0,0,0,1.091,1c2.128,0,1.091-4-2.728-4a3.507,3.507,0,0,0-3.82,3,3.507,3.507,0,0,0,3.82,3c.873,0,1.637.47,1.637,1s-.764,1-1.637,1-1.637-.47-1.637-1a1.049,1.049,0,0,0-1.091-1c-2.128,0-1.091,4,2.728,4a3.507,3.507,0,0,0,3.82-3,3.507,3.507,0,0,0-3.82-3c-.873,0-1.637-.47-1.637-1S37.619,69.17,38.492,69.17Z" transform="translate(-18.296 -36.174)" fill="#fff"/>
      <path id="Shape-4" data-name="Shape" d="M74.8,75.18H71.528v-7a1.1,1.1,0,0,0-2.183,0v8a1.049,1.049,0,0,0,1.091,1H74.8a1,1,0,1,0,0-2Z" transform="translate(-35.508 -36.183)" fill="#fff"/>
      <path id="Shape-5" data-name="Shape" d="M87.788,67.178H85.606a1.049,1.049,0,0,0-1.091,1v8a1.049,1.049,0,0,0,1.091,1h2.183a4.2,4.2,0,0,0,4.365-4v-2A4.2,4.2,0,0,0,87.788,67.178Zm2.183,6a2.1,2.1,0,0,1-2.183,2H86.7v-6h1.091a2.1,2.1,0,0,1,2.183,2Z" transform="translate(-43.038 -36.183)" fill="#fff"/>
      <path id="Shape-6" data-name="Shape" d="M56.374,67.178H55.283a3.146,3.146,0,0,0-3.274,3v4a3.146,3.146,0,0,0,3.274,3h1.091a3.146,3.146,0,0,0,3.274-3v-4A3.146,3.146,0,0,0,56.374,67.178Zm1.091,7a1.049,1.049,0,0,1-1.091,1H55.283a1.049,1.049,0,0,1-1.091-1v-4a1.049,1.049,0,0,1,1.091-1h1.091a1.049,1.049,0,0,1,1.091,1Z" transform="translate(-26.902 -36.183)" fill="#fff"/>
    </g>
  </g>
</svg>
