<svg xmlns="http://www.w3.org/2000/svg" xmlns:xlink="http://www.w3.org/1999/xlink" width="40" height="40" viewBox="0 0 40 40">
  <defs>
    <clipPath id="clip-path">
      <rect id="Rectangle_13" data-name="Rectangle 13" width="40" height="40" transform="translate(805.2 1586)" fill="#42cf92" stroke="#707070" stroke-width="1"/>
    </clipPath>
  </defs>
  <g id="Mask_Group_9" data-name="Mask Group 9" transform="translate(-805.2 -1586)" clip-path="url(#clip-path)">
    <g id="_411756" data-name="411756" transform="translate(805.2 1586)">
      <g id="Group_29" data-name="Group 29">
        <g id="Group_28" data-name="Group 28">
          <path id="Path_47" data-name="Path 47" d="M40,2.725A2.71,2.71,0,0,0,37.275,0a2.731,2.731,0,0,0-1.931.806c-.219.219-.617.691-.834.954a.648.648,0,0,0,1,.828c.341-.411.623-.734.754-.865a1.443,1.443,0,0,1,1.02-.426h.006A1.413,1.413,0,0,1,38.7,2.72a1.443,1.443,0,0,1-.426,1.02,23.155,23.155,0,0,1-2.29,1.753,4.106,4.106,0,0,0-3.545-2.039H22.954a4.765,4.765,0,0,0-3.391,1.4L.595,23.826a2.03,2.03,0,0,0,0,2.872L13.3,39.406a2.033,2.033,0,0,0,2.872,0L35.143,20.438a4.764,4.764,0,0,0,1.4-3.391V7.557a4.1,4.1,0,0,0-.082-.818,24.8,24.8,0,0,0,2.729-2.084A2.73,2.73,0,0,0,40,2.725ZM35.251,17.047a3.477,3.477,0,0,1-1.025,2.474L15.258,38.489a.735.735,0,0,1-1.039,0L1.511,25.781a.734.734,0,0,1,0-1.039L20.479,5.774a3.477,3.477,0,0,1,2.474-1.025h9.489a2.811,2.811,0,0,1,2.47,1.473c-.765.507-1.623,1.046-2.532,1.576-.028-.031-.057-.062-.087-.092A2.725,2.725,0,1,0,33,8.937c.791-.46,1.55-.931,2.251-1.386,0,0,0,0,0,.006v9.489ZM29.791,9.922a.648.648,0,0,0,.87.288q.57-.287,1.133-.593a1.426,1.426,0,1,1-.6-1.148q-.55.3-1.114.583A.648.648,0,0,0,29.791,9.922Z" fill="#42cf92"/>
        </g>
      </g>
      <g id="Group_31" data-name="Group 31">
        <g id="Group_30" data-name="Group 30">
          <path id="Path_48" data-name="Path 48" d="M19.31,13.2a.648.648,0,0,0-.648.648V27.534a.648.648,0,1,0,1.3,0V13.848A.648.648,0,0,0,19.31,13.2Z" fill="#42cf92"/>
        </g>
      </g>
      <g id="Group_33" data-name="Group 33">
        <g id="Group_32" data-name="Group 32">
          <path id="Path_49" data-name="Path 49" d="M16.346,18.767a2.721,2.721,0,1,0,.8,1.925A2.725,2.725,0,0,0,16.346,18.767ZM15.43,21.7a1.426,1.426,0,1,1,.418-1.008A1.427,1.427,0,0,1,15.43,21.7Z" fill="#42cf92"/>
        </g>
      </g>
      <g id="Group_35" data-name="Group 35">
        <g id="Group_34" data-name="Group 34">
          <path id="Path_50" data-name="Path 50" d="M26.122,18.767a2.72,2.72,0,1,0,0,3.849A2.725,2.725,0,0,0,26.122,18.767ZM25.205,21.7a1.425,1.425,0,1,1,0-2.016A1.427,1.427,0,0,1,25.205,21.7Z" fill="#42cf92"/>
        </g>
      </g>
    </g>
  </g>
</svg>
