<svg xmlns="http://www.w3.org/2000/svg" xmlns:xlink="http://www.w3.org/1999/xlink" width="20" height="20" viewBox="0 0 20 20">
  <defs>
    <clipPath id="clip-path">
      <rect id="Rectangle_275" data-name="Rectangle 275" width="20" height="20" transform="translate(1320 55)" fill="#fff" stroke="#707070" stroke-width="1"/>
    </clipPath>
  </defs>
  <g id="Mask_Group_171" data-name="Mask Group 171" transform="translate(-1320 -55)" opacity="0.73" clip-path="url(#clip-path)">
    <path id="_2121815" data-name="2121815" d="M19.178,4.381H3.541l-.232-2.59a.821.821,0,0,0-.818-.748H.821a.821.821,0,1,0,0,1.643h.918l.945,10.525a3.16,3.16,0,0,0,1.183,2.141,2.49,2.49,0,1,0,4.3.685h4.5a2.49,2.49,0,1,0,2.342-1.643H5.833a1.525,1.525,0,0,1-1.4-.925L17.558,12.7a.821.821,0,0,0,.749-.621L19.975,5.4a.822.822,0,0,0-.8-1.021ZM5.828,17.731a.847.847,0,1,1,.847-.847A.848.848,0,0,1,5.828,17.731Zm9.178,0a.847.847,0,1,1,.847-.847A.848.848,0,0,1,15.006,17.731Zm1.853-6.638L4.21,11.836,3.688,6.023H18.126Z" transform="translate(1320 54.791)"/>
  </g>
</svg>
