<svg xmlns="http://www.w3.org/2000/svg" xmlns:xlink="http://www.w3.org/1999/xlink" width="25" height="25" viewBox="0 0 25 25">
  <defs>
    <clipPath id="clip-path">
      <rect id="Rectangle_28" data-name="Rectangle 28" width="25" height="25" transform="translate(800 2604)" fill="#fff" stroke="#707070" stroke-width="1"/>
    </clipPath>
  </defs>
  <g id="Mask_Group_7" data-name="Mask Group 7" transform="translate(-800 -2604)" clip-path="url(#clip-path)">
    <path id="_2089181" data-name="2089181" d="M22.656,3.125H2.344A2.346,2.346,0,0,0,0,5.469V19.531a2.346,2.346,0,0,0,2.344,2.344H22.656A2.346,2.346,0,0,0,25,19.531V5.469a2.346,2.346,0,0,0-2.344-2.344Zm0,1.562a.777.777,0,0,1,.3.06L12.5,13.81,2.044,4.748a.778.778,0,0,1,.3-.06Zm0,15.625H2.344a.782.782,0,0,1-.781-.781V6.4l10.426,9.035a.782.782,0,0,0,1.024,0L23.438,6.4V19.531A.782.782,0,0,1,22.656,20.312Z" transform="translate(800 2604)"/>
  </g>
</svg>
