<svg xmlns="http://www.w3.org/2000/svg" xmlns:xlink="http://www.w3.org/1999/xlink" width="15" height="15" viewBox="0 0 15 15">
  <defs>
    <clipPath id="clip-path">
      <rect id="Rectangle_68" data-name="Rectangle 68" width="15" height="15" transform="translate(1100.2 4793)" fill="#fff"/>
    </clipPath>
    <radialGradient id="radial-gradient" cx="0.205" cy="0.874" r="1.103" gradientTransform="translate(0)" gradientUnits="objectBoundingBox">
      <stop offset="0" stop-color="#fae100"/>
      <stop offset="0.054" stop-color="#fadc04"/>
      <stop offset="0.117" stop-color="#fbce0e"/>
      <stop offset="0.183" stop-color="#fcb720"/>
      <stop offset="0.251" stop-color="#fe9838"/>
      <stop offset="0.305" stop-color="#ff7950"/>
      <stop offset="0.492" stop-color="#ff1c74"/>
      <stop offset="1" stop-color="#6c1cd1"/>
    </radialGradient>
    <linearGradient id="linear-gradient" x1="0.369" y1="0.426" x2="-1.54" y2="-0.648" gradientUnits="objectBoundingBox">
      <stop offset="0" stop-color="#a1b5d8" stop-opacity="0"/>
      <stop offset="0.309" stop-color="#90a2bd" stop-opacity="0.31"/>
      <stop offset="0.755" stop-color="#7c8b9c" stop-opacity="0.757"/>
      <stop offset="1" stop-color="#748290"/>
    </linearGradient>
    <linearGradient id="linear-gradient-2" x1="0.5" y1="0.413" x2="0.5" y2="1.193" gradientUnits="objectBoundingBox">
      <stop offset="0" stop-color="#fae100" stop-opacity="0"/>
      <stop offset="0.307" stop-color="#fca800" stop-opacity="0.306"/>
      <stop offset="0.627" stop-color="#fe7300" stop-opacity="0.627"/>
      <stop offset="0.868" stop-color="#ff5200" stop-opacity="0.867"/>
      <stop offset="1" stop-color="#ff4500"/>
    </linearGradient>
    <linearGradient id="linear-gradient-3" x1="0.316" y1="0.311" x2="0.012" y2="0.005" gradientUnits="objectBoundingBox">
      <stop offset="0" stop-color="#833ab4" stop-opacity="0"/>
      <stop offset="1" stop-color="#833ab4"/>
    </linearGradient>
    <linearGradient id="linear-gradient-4" x1="0.582" y1="0.887" x2="0.418" y2="0.113" xlink:href="#linear-gradient-3"/>
    <linearGradient id="linear-gradient-5" x1="0.605" y1="0.605" x2="-0.16" y2="-0.16" xlink:href="#linear-gradient-3"/>
    <linearGradient id="linear-gradient-6" x1="0.376" y1="0.332" x2="-0.072" y2="-0.063" xlink:href="#linear-gradient-3"/>
    <linearGradient id="linear-gradient-7" x1="0.816" y1="0.182" x2="0.172" y2="0.835" gradientUnits="objectBoundingBox">
      <stop offset="0" stop-color="#833ab4"/>
      <stop offset="0.092" stop-color="#9c3495"/>
      <stop offset="0.293" stop-color="#dc2546"/>
      <stop offset="0.392" stop-color="#fd1d1d"/>
      <stop offset="0.559" stop-color="#fc6831"/>
      <stop offset="0.689" stop-color="#fc9b40"/>
      <stop offset="0.752" stop-color="#fcaf45"/>
      <stop offset="0.781" stop-color="#fdb750"/>
      <stop offset="0.866" stop-color="#fecb6a"/>
      <stop offset="0.942" stop-color="#ffd87a"/>
      <stop offset="1" stop-color="#ffdc80"/>
    </linearGradient>
  </defs>
  <g id="Mask_Group_44" data-name="Mask Group 44" transform="translate(-1100.2 -4793)" clip-path="url(#clip-path)">
    <g id="_1409946" data-name="1409946" transform="translate(1100.2 4793)">
      <path id="Path_89" data-name="Path 89" d="M14.743,2.683A2.731,2.731,0,0,0,12.317.257a45.305,45.305,0,0,0-9.634,0A2.731,2.731,0,0,0,.257,2.683a45.305,45.305,0,0,0,0,9.634,2.731,2.731,0,0,0,2.426,2.426,45.306,45.306,0,0,0,9.634,0,2.731,2.731,0,0,0,2.426-2.426,45.305,45.305,0,0,0,0-9.634Zm0,0" fill="url(#radial-gradient)"/>
      <path id="Path_90" data-name="Path 90" d="M13.927,3.226a2.424,2.424,0,0,0-2.153-2.153,40.218,40.218,0,0,0-8.549,0A2.424,2.424,0,0,0,1.073,3.226a40.217,40.217,0,0,0,0,8.549,2.424,2.424,0,0,0,2.153,2.153,40.2,40.2,0,0,0,8.549,0,2.423,2.423,0,0,0,2.153-2.153,40.2,40.2,0,0,0,0-8.549Zm0,0" fill="url(#linear-gradient)"/>
      <path id="Path_91" data-name="Path 91" d="M.225,12.006q.015.156.032.311a2.731,2.731,0,0,0,2.426,2.426,45.306,45.306,0,0,0,9.634,0,2.731,2.731,0,0,0,2.426-2.426q.017-.156.032-.311Zm0,0" fill="url(#linear-gradient-2)"/>
      <path id="Path_92" data-name="Path 92" d="M14.743,12.317A45.345,45.345,0,0,0,15,7.14L11.57,3.712a2.456,2.456,0,0,0-1.789-.821c-1.512-.054-3.029-.052-4.541,0A2.426,2.426,0,0,0,2.881,5.019c-.04.219-.064.441-.095.662V9.318c.017.118.043.235.051.354a2.644,2.644,0,0,0,.857,1.838L7.183,15a45.346,45.346,0,0,0,5.135-.256,2.731,2.731,0,0,0,2.426-2.426Zm0,0" fill="url(#linear-gradient-3)"/>
      <path id="Path_93" data-name="Path 93" d="M14.743,12.317a2.731,2.731,0,0,1-2.426,2.426A45.371,45.371,0,0,1,7.183,15L3.7,11.515a2.443,2.443,0,0,0,1.541.592c1.512.057,3.029.055,4.541,0a2.43,2.43,0,0,0,2.4-2.429c.046-1.452.046-2.907,0-4.359a2.531,2.531,0,0,0-.608-1.606L15,7.14a45.426,45.426,0,0,1-.255,5.177Zm0,0" fill="url(#linear-gradient-4)"/>
      <path id="Path_94" data-name="Path 94" d="M9.27,5.876A2.4,2.4,0,1,0,5.876,9.27l5.559,5.559q.441-.038.882-.085a2.731,2.731,0,0,0,2.426-2.426q.047-.441.085-.882Zm0,0" fill="url(#linear-gradient-5)"/>
      <path id="Path_95" data-name="Path 95" d="M14.971,9.116,10.5,4.642a.571.571,0,1,0-.8.8l5.194,5.194q.053-.76.08-1.52Zm0,0" fill="url(#linear-gradient-6)"/>
      <path id="Path_96" data-name="Path 96" d="M2.786,5.681c.031-.221.055-.443.095-.662A2.426,2.426,0,0,1,5.24,2.891c1.512-.052,3.029-.055,4.541,0a2.43,2.43,0,0,1,2.4,2.429q.068,2.178,0,4.359a2.43,2.43,0,0,1-2.4,2.429c-1.512.055-3.029.056-4.541,0a2.472,2.472,0,0,1-2.4-2.435c-.008-.118-.033-.236-.051-.354V5.681ZM7.5,11.3c.692,0,1.385.021,2.076,0a1.688,1.688,0,0,0,1.775-1.769q.047-2.023,0-4.048A1.678,1.678,0,0,0,9.577,3.708q-2.062-.044-4.125,0A1.668,1.668,0,0,0,3.679,5.449q-.056,2.049,0,4.1a1.679,1.679,0,0,0,1.772,1.743c.682.025,1.366,0,2.05,0Zm0,0" fill="url(#linear-gradient-7)"/>
      <g id="Group_58" data-name="Group 58">
        <path id="Path_97" data-name="Path 97" d="M2.786,5.681c.031-.221.055-.443.095-.662A2.426,2.426,0,0,1,5.24,2.891c1.512-.052,3.029-.055,4.541,0a2.43,2.43,0,0,1,2.4,2.429q.068,2.178,0,4.359a2.43,2.43,0,0,1-2.4,2.429c-1.512.055-3.029.056-4.541,0a2.472,2.472,0,0,1-2.4-2.435c-.008-.118-.033-.236-.051-.354V5.681ZM7.5,11.3c.692,0,1.385.021,2.076,0a1.688,1.688,0,0,0,1.775-1.769q.047-2.023,0-4.048A1.678,1.678,0,0,0,9.577,3.708q-2.062-.044-4.125,0A1.668,1.668,0,0,0,3.679,5.449q-.056,2.049,0,4.1a1.679,1.679,0,0,0,1.772,1.743c.682.025,1.366,0,2.05,0Zm0,0" fill="#fff"/>
        <path id="Path_98" data-name="Path 98" d="M7.5,5.1A2.4,2.4,0,1,0,9.9,7.5,2.4,2.4,0,0,0,7.5,5.1Zm0,3.978A1.575,1.575,0,1,1,9.075,7.5,1.575,1.575,0,0,1,7.5,9.075Zm0,0" fill="#fff"/>
        <path id="Path_99" data-name="Path 99" d="M10.614,4.988a.572.572,0,1,1-.572-.572A.572.572,0,0,1,10.614,4.988Zm0,0" fill="#fff"/>
      </g>
    </g>
  </g>
</svg>
