<svg xmlns="http://www.w3.org/2000/svg" xmlns:xlink="http://www.w3.org/1999/xlink" width="15" height="15" viewBox="0 0 15 15">
  <defs>
    <clipPath id="clip-path">
      <rect id="Rectangle_66" data-name="Rectangle 66" width="15" height="15" transform="translate(338 4843)" fill="#fff" stroke="#707070" stroke-width="1"/>
    </clipPath>
  </defs>
  <g id="Mask_Group_40" data-name="Mask Group 40" transform="translate(-338 -4843)" clip-path="url(#clip-path)">
    <g id="_2111705" data-name="2111705" transform="translate(337.769 4843.008)">
      <path id="Path_79" data-name="Path 79" d="M14.459,8.675c.447-3.764-.215-6.14-1.409-7.214h0C11.124-.375,4.616-.646,2.31,1.543A6.548,6.548,0,0,0,.87,6.131c-.04,1.946-.087,5.593,3.31,6.582h0l0,1.511s-.023.612.368.735c.447.145.649-.139,2.04-1.8a12.725,12.725,0,0,0,4.314-.328,4.32,4.32,0,0,0,3.556-4.155ZM6.818,12.1s-1.472,1.835-1.93,2.312c-.15.155-.314.141-.312-.167,0-.2.011-2.508.011-2.508-2.881-.826-2.711-3.93-2.68-5.554A5.458,5.458,0,0,1,3.114,2.327C5.136.43,10.842.854,12.3,2.221,14.073,3.8,13.44,8.247,13.444,8.4c-.365,3.044-2.518,3.237-2.914,3.368a11.74,11.74,0,0,1-3.712.328Z" fill="#8e24aa"/>
      <path id="Path_80" data-name="Path 80" d="M7.632,2.683a.189.189,0,0,0,0,.378,3.4,3.4,0,0,1,3.418,3.7.183.183,0,1,0,.365,0h0A3.769,3.769,0,0,0,7.632,2.683Z" fill="#8e24aa"/>
      <path id="Path_81" data-name="Path 81" d="M10.085,6.365a.183.183,0,1,0,.365.009A2.529,2.529,0,0,0,7.966,3.667a.19.19,0,0,0-.026.378,2.156,2.156,0,0,1,2.145,2.32Z" fill="#8e24aa"/>
      <path id="Path_82" data-name="Path 82" d="M9.692,7.977a.577.577,0,0,0-.752.108l-.272.352a.486.486,0,0,1-.4.155A3.624,3.624,0,0,1,5.887,6.124a.525.525,0,0,1,.149-.41l.34-.281a.626.626,0,0,0,.1-.779,8.115,8.115,0,0,0-.93-1.344A.5.5,0,0,0,4.874,3.2H4.868c-.54.316-1.132.907-.942,1.516A10.216,10.216,0,0,0,6.733,8.947,10.794,10.794,0,0,0,9.625,10.6l.006.009c.588.2,1.16-.418,1.466-.975v0a.535.535,0,0,0-.107-.691,7.362,7.362,0,0,0-1.3-.963Z" fill="#8e24aa"/>
      <path id="Path_83" data-name="Path 83" d="M8.223,5.061c.6.035.891.348.922.992a.183.183,0,1,0,.365-.017A1.253,1.253,0,0,0,8.243,4.683.189.189,0,0,0,8.223,5.061Z" fill="#8e24aa"/>
    </g>
  </g>
</svg>
