<svg xmlns="http://www.w3.org/2000/svg" xmlns:xlink="http://www.w3.org/1999/xlink" width="72" height="12" viewBox="0 0 72 12">
  <defs>
    <clipPath id="clip-path">
      <rect id="Rectangle_34" data-name="Rectangle 34" width="12" height="12" transform="translate(203 2667)" fill="#fff" stroke="#707070" stroke-width="1"/>
    </clipPath>
  </defs>
  <g id="Group_835" data-name="Group 835" transform="translate(-203 -1887)">
    <g id="Mask_Group_13" data-name="Mask Group 13" transform="translate(0 -780)" clip-path="url(#clip-path)">
      <path id="_1828884" data-name="1828884" d="M11.969,4.355a.637.637,0,0,0-.549-.439L7.956,3.6,6.587.4A.638.638,0,0,0,5.414.4L4.044,3.6.58,3.917A.639.639,0,0,0,.218,5.033l2.618,2.3-.772,3.4a.637.637,0,0,0,.949.689L6,9.633l2.987,1.786a.638.638,0,0,0,.949-.689l-.772-3.4,2.618-2.3a.638.638,0,0,0,.187-.678Zm0,0" transform="translate(203 2667.24)" fill="#ffc107"/>
    </g>
    <g id="Mask_Group_13-2" data-name="Mask Group 13" transform="translate(15 -780)" clip-path="url(#clip-path)">
      <path id="_1828884-2" data-name="1828884" d="M11.969,4.355a.637.637,0,0,0-.549-.439L7.956,3.6,6.587.4A.638.638,0,0,0,5.414.4L4.044,3.6.58,3.917A.639.639,0,0,0,.218,5.033l2.618,2.3-.772,3.4a.637.637,0,0,0,.949.689L6,9.633l2.987,1.786a.638.638,0,0,0,.949-.689l-.772-3.4,2.618-2.3a.638.638,0,0,0,.187-.678Zm0,0" transform="translate(203 2667.24)" fill="#ffc107"/>
    </g>
    <g id="Mask_Group_13-3" data-name="Mask Group 13" transform="translate(30 -780)" clip-path="url(#clip-path)">
      <path id="_1828884-3" data-name="1828884" d="M11.969,4.355a.637.637,0,0,0-.549-.439L7.956,3.6,6.587.4A.638.638,0,0,0,5.414.4L4.044,3.6.58,3.917A.639.639,0,0,0,.218,5.033l2.618,2.3-.772,3.4a.637.637,0,0,0,.949.689L6,9.633l2.987,1.786a.638.638,0,0,0,.949-.689l-.772-3.4,2.618-2.3a.638.638,0,0,0,.187-.678Zm0,0" transform="translate(203 2667.24)" fill="#ffc107"/>
    </g>
    <g id="Mask_Group_13-4" data-name="Mask Group 13" transform="translate(45 -780)" clip-path="url(#clip-path)">
      <path id="_1828884-4" data-name="1828884" d="M11.969,4.355a.637.637,0,0,0-.549-.439L7.956,3.6,6.587.4A.638.638,0,0,0,5.414.4L4.044,3.6.58,3.917A.639.639,0,0,0,.218,5.033l2.618,2.3-.772,3.4a.637.637,0,0,0,.949.689L6,9.633l2.987,1.786a.638.638,0,0,0,.949-.689l-.772-3.4,2.618-2.3a.638.638,0,0,0,.187-.678Zm0,0" transform="translate(203 2667.24)" fill="#ffc107"/>
    </g>
    <g id="Mask_Group_13-5" data-name="Mask Group 13" transform="translate(60 -780)" clip-path="url(#clip-path)">
      <path id="_1828884-5" data-name="1828884" d="M11.969,4.355a.637.637,0,0,0-.549-.439L7.956,3.6,6.587.4A.638.638,0,0,0,5.414.4L4.044,3.6.58,3.917A.639.639,0,0,0,.218,5.033l2.618,2.3-.772,3.4a.637.637,0,0,0,.949.689L6,9.633l2.987,1.786a.638.638,0,0,0,.949-.689l-.772-3.4,2.618-2.3a.638.638,0,0,0,.187-.678Zm0,0" transform="translate(203 2667.24)" fill="#ffc107"/>
    </g>
  </g>
</svg>
