<svg xmlns="http://www.w3.org/2000/svg" xmlns:xlink="http://www.w3.org/1999/xlink" width="70" height="60" viewBox="0 0 70 60">
  <defs>
    <clipPath id="clip-path">
      <rect id="Rectangle_61" data-name="Rectangle 61" width="70" height="60" fill="#fff" stroke="#707070" stroke-width="1"/>
    </clipPath>
  </defs>
  <g id="Mask_Group_37" data-name="Mask Group 37" clip-path="url(#clip-path)">
    <g id="_809498" data-name="809498" transform="translate(7.892 -0.137)">
      <g id="Group_50" data-name="Group 50" transform="translate(0)">
        <g id="Group_49" data-name="Group 49">
          <path id="Path_75" data-name="Path 75" d="M65.034,52.243,58.18,44.132a9.9,9.9,0,0,0,5.422-3.7c1.614-2.568.884-5.7.178-8.73a22.087,22.087,0,0,1-.763-4.749A22.08,22.08,0,0,1,63.78,22.2c.7-3.03,1.436-6.162-.178-8.726-1.671-2.658-5.037-3.642-8.292-4.592A25.4,25.4,0,0,1,50.628,7.2a22.632,22.632,0,0,1-3.752-2.8C44.461,2.336,41.723,0,38.238,0S32.015,2.336,29.6,4.4a22.636,22.636,0,0,1-3.751,2.8,25.4,25.4,0,0,1-4.681,1.684c-3.255.95-6.621,1.934-8.292,4.592-1.614,2.568-.884,5.7-.178,8.73a22.079,22.079,0,0,1,.761,4.753,22.079,22.079,0,0,1-.763,4.753c-.7,3.03-1.436,6.162.178,8.726A9.9,9.9,0,0,0,18.3,44.131l-6.859,8.111a.983.983,0,0,0,.2,1.455,1.2,1.2,0,0,0,.832.21l8.053-.926,1.988,6.4a1.1,1.1,0,0,0,.868.733,1.245,1.245,0,0,0,.214.019,1.164,1.164,0,0,0,.89-.4l7.193-8.517a10.849,10.849,0,0,0,6.56,2.7,10.849,10.849,0,0,0,6.56-2.7l7.193,8.513a1.163,1.163,0,0,0,.89.4,1.245,1.245,0,0,0,.214-.019,1.1,1.1,0,0,0,.868-.733l1.988-6.4L64,53.908a1.111,1.111,0,0,0,1.258-.9A.978.978,0,0,0,65.034,52.243ZM24.069,56.851l-1.643-5.294a1.13,1.13,0,0,0-1.222-.743l-6.307.726,5.653-6.69.623.184a25.4,25.4,0,0,1,4.677,1.684,22.632,22.632,0,0,1,3.752,2.8l.387.33Zm14.169-5.009c-2.6,0-4.79-1.866-7.108-3.845a24.58,24.58,0,0,0-4.155-3.076,27.489,27.489,0,0,0-5.128-1.866c-2.977-.87-5.789-1.691-7.024-3.655-1.178-1.876-.57-4.49.075-7.258a23.513,23.513,0,0,0,.813-5.184,23.5,23.5,0,0,0-.812-5.184c-.645-2.767-1.254-5.381-.075-7.258,1.239-1.964,4.047-2.785,7.024-3.655a27.5,27.5,0,0,0,5.127-1.866,24.577,24.577,0,0,0,4.154-3.076c2.319-1.978,4.508-3.845,7.109-3.845s4.79,1.866,7.108,3.845A24.579,24.579,0,0,0,49.5,8.995a27.488,27.488,0,0,0,5.128,1.866c2.977.87,5.789,1.691,7.024,3.655,1.178,1.876.57,4.489-.075,7.258a23.512,23.512,0,0,0-.813,5.184,23.5,23.5,0,0,0,.812,5.184c.645,2.767,1.254,5.381.075,7.258-1.239,1.964-4.047,2.785-7.024,3.655A27.5,27.5,0,0,0,49.5,44.921,24.578,24.578,0,0,0,45.348,48C43.029,49.975,40.84,51.842,38.238,51.842Zm17.04-1.029a1.13,1.13,0,0,0-1.222.743l-1.649,5.294-5.918-7,.387-.33a22.637,22.637,0,0,1,3.751-2.8,25.4,25.4,0,0,1,4.681-1.684l.623-.184,5.654,6.69Z" transform="translate(-11.206)" fill="#fff"/>
        </g>
      </g>
      <g id="Group_52" data-name="Group 52" transform="translate(6.759 8.295)">
        <g id="Group_51" data-name="Group 51">
          <path id="Path_76" data-name="Path 76" d="M44.929,17.931c-11.2,0-20.274,8.356-20.274,18.663s9.077,18.663,20.274,18.663S65.2,46.9,65.2,36.594,56.121,17.943,44.929,17.931Zm0,35.252c-9.953,0-18.021-7.427-18.021-16.589S34.976,20,44.929,20s18.021,7.427,18.021,16.589S54.877,53.173,44.929,53.183Z" transform="translate(-24.655 -17.931)" fill="#fff"/>
        </g>
      </g>
      <g id="Group_54" data-name="Group 54" transform="translate(13.603 14.305)">
        <g id="Group_53" data-name="Group 53">
          <path id="Path_77" data-name="Path 77" d="M64.7,39.246a2.32,2.32,0,0,0-1.82-.853h-6.9l-2.14-6.042A2.3,2.3,0,0,0,51,31.028a2.171,2.171,0,0,0-1.437,1.322l-2.134,6.042h-6.9a2.169,2.169,0,0,0-2.254,2.073,2.026,2.026,0,0,0,.927,1.678l5.582,3.733-2.132,6.042A2.044,2.044,0,0,0,44.1,54.53a2.414,2.414,0,0,0,2.021-.295L51.705,50.5l5.583,3.733a2.376,2.376,0,0,0,2.649,0,1.956,1.956,0,0,0,.818-2.318l-2.132-6.043,5.582-3.733A1.969,1.969,0,0,0,64.7,39.246Zm-8.065,5.4a.992.992,0,0,0-.409,1.16l2.386,6.758-6.246-4.176a1.206,1.206,0,0,0-1.323,0L44.8,52.56,47.183,45.8a.992.992,0,0,0-.409-1.159L40.53,40.466h7.719a1.122,1.122,0,0,0,1.071-.716l2.386-6.758,2.386,6.757a1.121,1.121,0,0,0,1.071.716h7.719Z" transform="translate(-38.276 -30.924)" fill="#fff"/>
        </g>
      </g>
    </g>
  </g>
</svg>
