<svg xmlns="http://www.w3.org/2000/svg" xmlns:xlink="http://www.w3.org/1999/xlink" width="40" height="40" viewBox="0 0 40 40">
  <defs>
    <clipPath id="clip-path">
      <rect id="Rectangle_12" data-name="Rectangle 12" width="40" height="40" transform="translate(975.2 1324)" fill="#42cf92" stroke="#707070" stroke-width="1"/>
    </clipPath>
  </defs>
  <g id="Mask_Group_7" data-name="Mask Group 7" transform="translate(-975.2 -1324)" clip-path="url(#clip-path)">
    <g id="_755912" data-name="755912" transform="translate(975.2 1324)">
      <g id="Group_15" data-name="Group 15">
        <g id="Group_14" data-name="Group 14">
          <path id="Path_27" data-name="Path 27" d="M26.3,24.344H18.792V17.563a.606.606,0,0,0-1.211,0v10.6L17.46,28.1l-3.936-7.205a3.02,3.02,0,0,0-2.785-1.877H2.686a.572.572,0,0,0-.606.606v5.571A2.609,2.609,0,0,0,.022,27.8v8.6A.572.572,0,0,0,.627,37H2.141a3.246,3.246,0,0,0,3.27,2.967A3.334,3.334,0,0,0,8.68,37H10.8a3.285,3.285,0,0,0,3.27,2.967A3.334,3.334,0,0,0,17.339,37h.848a.607.607,0,0,0,.606-.606V25.555H26.3a.606.606,0,1,0,0-1.211ZM3.292,20.166h7.448v.121a1.824,1.824,0,0,1,1.7,1.15.059.059,0,0,0,.061.061l3.027,5.571-.061-.061a.958.958,0,0,0-.908.061.882.882,0,0,0-.424.787v1.393H9.346V26.282a1.215,1.215,0,0,0-1.211-1.211H3.292ZM5.411,38.755A2.059,2.059,0,1,1,7.469,36.7,2.08,2.08,0,0,1,5.411,38.755Zm8.659,0A2.059,2.059,0,1,1,16.128,36.7,2.042,2.042,0,0,1,14.069,38.755Zm3.512-2.967h-.424a3.28,3.28,0,0,0-6.3,0H8.5a3.28,3.28,0,0,0-6.3,0H1.233V32.64H17.581Zm.06-4.36H1.233V27.856a1.487,1.487,0,0,1,1.453-1.514H8.075v3.572a.572.572,0,0,0,.606.606h5.994a.572.572,0,0,0,.606-.606V28.341l2.361,1.272v1.816Z" fill="#42cf92"/>
        </g>
      </g>
      <g id="Group_17" data-name="Group 17">
        <g id="Group_16" data-name="Group 16">
          <path id="Path_28" data-name="Path 28" d="M39.742,13.324,20.366.125a.656.656,0,0,0-.666,0L.264,13.324a.575.575,0,0,0-.242.666.6.6,0,0,0,.606.424H.991v3.451a.572.572,0,0,0,.606.606.572.572,0,0,0,.606-.606V14.414H37.8V38.755H18.913a.606.606,0,1,0,0,1.211h19.5a.572.572,0,0,0,.606-.606V14.414h.363a.729.729,0,0,0,.606-.424A.672.672,0,0,0,39.742,13.324ZM2.565,13.2,20,1.336,37.441,13.2H2.565Z" fill="#42cf92"/>
        </g>
      </g>
      <g id="Group_19" data-name="Group 19">
        <g id="Group_18" data-name="Group 18">
          <path id="Path_29" data-name="Path 29" d="M26.966,29.794h-6.3a.572.572,0,0,0-.606.606v6.3a.572.572,0,0,0,.606.606h6.3a.572.572,0,0,0,.606-.606V30.4A.607.607,0,0,0,26.966,29.794Zm-.606,6.3H21.274V31h5.086Z" fill="#42cf92"/>
        </g>
      </g>
      <g id="Group_21" data-name="Group 21">
        <g id="Group_20" data-name="Group 20">
          <path id="Path_30" data-name="Path 30" d="M35.806,29.794h-6.3a.572.572,0,0,0-.606.606v6.3a.572.572,0,0,0,.606.606h6.3a.572.572,0,0,0,.606-.606V30.4A.572.572,0,0,0,35.806,29.794Zm-.606,6.3H30.115V31H35.2Z" fill="#42cf92"/>
        </g>
      </g>
      <g id="Group_23" data-name="Group 23">
        <g id="Group_22" data-name="Group 22">
          <path id="Path_31" data-name="Path 31" d="M35.806,20.954h-6.3a.572.572,0,0,0-.606.606v6.3a.607.607,0,0,0,.606.606h6.3a.572.572,0,0,0,.606-.606v-6.3A.572.572,0,0,0,35.806,20.954Zm-.606,6.3H30.115V22.165H35.2Z" fill="#42cf92"/>
        </g>
      </g>
      <g id="Group_25" data-name="Group 25">
        <g id="Group_24" data-name="Group 24">
          <path id="Path_32" data-name="Path 32" d="M26.966,16.049h-6.3a.572.572,0,0,0-.606.606v6.3a.572.572,0,0,0,.606.606h6.3a.572.572,0,0,0,.606-.606v-6.3A.572.572,0,0,0,26.966,16.049Zm-.606,6.237H21.274V17.2h5.086Z" fill="#42cf92"/>
        </g>
      </g>
      <g id="Group_27" data-name="Group 27">
        <g id="Group_26" data-name="Group 26">
          <path id="Path_33" data-name="Path 33" d="M20.124,4.363a3.754,3.754,0,1,0,3.754,3.754A3.773,3.773,0,0,0,20.124,4.363Zm0,6.3a2.543,2.543,0,1,1,2.543-2.543A2.558,2.558,0,0,1,20.124,10.66Z" fill="#42cf92"/>
        </g>
      </g>
    </g>
  </g>
</svg>
