<svg xmlns="http://www.w3.org/2000/svg" xmlns:xlink="http://www.w3.org/1999/xlink" width="40" height="40" viewBox="0 0 40 40">
  <defs>
    <clipPath id="clip-path">
      <rect id="Rectangle_11" data-name="Rectangle 11" width="40" height="40" transform="translate(805.2 1455)" fill="#42cf92" stroke="#707070" stroke-width="1"/>
    </clipPath>
  </defs>
  <g id="Mask_Group_8" data-name="Mask Group 8" transform="translate(-805.2 -1455)" clip-path="url(#clip-path)">
    <g id="surface1" transform="translate(805.2 1455)">
      <path id="Path_34" data-name="Path 34" d="M33.333,7.063V3.333A3.338,3.338,0,0,0,30,0H3.333A3.338,3.338,0,0,0,0,3.333V18a3.327,3.327,0,0,0,2.989,3.3L5.5,27.8A3.334,3.334,0,0,0,9.8,29.716l15.649-6.028a9.637,9.637,0,0,0,.83,8.557l.383.613v6.476a.666.666,0,0,0,.667.667h12A.666.666,0,0,0,40,39.333V17.327a8.725,8.725,0,0,0-2.554-6.145Zm0,3.987L35.357,16.3a2,2,0,0,1-1.148,2.585l-1.157.447A3.334,3.334,0,0,0,33.333,18ZM1.333,18V3.333a2,2,0,0,1,2-2H30a2,2,0,0,1,2,2V7.571h-.006L32,7.586V18a2.028,2.028,0,0,1-.045.345l-6.107-6.107a3.557,3.557,0,0,0-5.133,4.918L23.318,20H3.333A2,2,0,0,1,1.333,18Zm8.541,3.333L5.133,23.158l-.7-1.825Zm-.549,7.139a2,2,0,0,1-2.585-1.147L5.615,24.4l7.958-3.067v0H24.54l.867.945ZM38.667,38.667H28V33.333H38.667Zm0-6.667H27.7l-.289-.462A8.313,8.313,0,0,1,27.245,23a.666.666,0,0,0-.087-.781l-5.463-5.96a2.223,2.223,0,0,1,3.21-3.075L35.529,23.8l.943-.943L34,20.4l.684-.267A3.334,3.334,0,0,0,36.6,15.822L34.344,9.962l2.16,2.164a7.383,7.383,0,0,1,2.163,5.2Zm0,0" fill="#42cf92"/>
      <path id="Path_35" data-name="Path 35" d="M7.6,9.333A1.733,1.733,0,0,0,9.333,7.6V4.4A1.733,1.733,0,0,0,7.6,2.667H4.4A1.733,1.733,0,0,0,2.667,4.4V7.6A1.733,1.733,0,0,0,4.4,9.333ZM4,7.6V6.667H5.333V5.333H4V4.4A.4.4,0,0,1,4.4,4H7.6a.4.4,0,0,1,.4.4v.933H6.667V6.667H8V7.6a.4.4,0,0,1-.4.4H4.4A.4.4,0,0,1,4,7.6Zm0,0" fill="#42cf92"/>
      <path id="Path_36" data-name="Path 36" d="M3.333,11.333H6v1.333H3.333Zm0,0" fill="#42cf92"/>
      <path id="Path_37" data-name="Path 37" d="M3.333,15.333H6v1.333H3.333Zm0,0" fill="#42cf92"/>
      <path id="Path_38" data-name="Path 38" d="M15.333,15.333H18v1.333H15.333Zm0,0" fill="#42cf92"/>
      <path id="Path_39" data-name="Path 39" d="M7.333,11.333H10v1.333H7.333Zm0,0" fill="#42cf92"/>
      <path id="Path_40" data-name="Path 40" d="M11.333,11.333H14v1.333H11.333Zm0,0" fill="#42cf92"/>
      <path id="Path_41" data-name="Path 41" d="M15.333,11.333H18v1.333H15.333Zm0,0" fill="#42cf92"/>
      <path id="Path_42" data-name="Path 42" d="M28,3.333h1.333v2H28Zm0,0" fill="#42cf92"/>
      <path id="Path_43" data-name="Path 43" d="M25.333,3.333h1.333v2H25.333Zm0,0" fill="#42cf92"/>
      <path id="Path_44" data-name="Path 44" d="M22.667,3.333H24v2H22.667Zm0,0" fill="#42cf92"/>
      <path id="Path_45" data-name="Path 45" d="M20,3.333h1.333v2H20Zm0,0" fill="#42cf92"/>
      <path id="Path_46" data-name="Path 46" d="M29.333,34.667h1.333V36H29.333Zm0,0" fill="#42cf92"/>
    </g>
  </g>
</svg>
