<svg xmlns="http://www.w3.org/2000/svg" xmlns:xlink="http://www.w3.org/1999/xlink" width="40" height="40" viewBox="0 0 40 40">
  <defs>
    <clipPath id="clip-path">
      <rect id="Rectangle_8" data-name="Rectangle 8" width="40" height="40" transform="translate(375.2 1324)" fill="#42cf92" stroke="#707070" stroke-width="1"/>
    </clipPath>
  </defs>
  <g id="Mask_Group_4" data-name="Mask Group 4" transform="translate(-375.2 -1324)" clip-path="url(#clip-path)">
    <g id="_411763" data-name="411763" transform="translate(375.2 1324)">
      <g id="Group_3" data-name="Group 3">
        <g id="Group_2" data-name="Group 2">
          <path id="Path_6" data-name="Path 6" d="M37.2,18.075l-1.036-4.143a.626.626,0,0,0,.5-.612v-.668a2.633,2.633,0,0,0-2.63-2.63H29.311V8.643a1.3,1.3,0,0,0-1.294-1.294H3.967A1.3,1.3,0,0,0,2.672,8.643V20a.626.626,0,1,0,1.253,0V8.643A.042.042,0,0,1,3.967,8.6h24.05a.042.042,0,0,1,.042.042V20a.626.626,0,0,0,1.253,0v-.71H36.7a2.05,2.05,0,0,1,1.946,1.42H36.7a.626.626,0,0,0-.626.626v1.336a1.965,1.965,0,0,0,1.962,1.962h.71V27.39H37.11a3.965,3.965,0,0,0-7.5,0h-.3V22.672a.626.626,0,0,0-1.253,0V27.39H15.064a3.965,3.965,0,0,0-7.5,0h-3.6a.042.042,0,0,1-.042-.042V25.971H6.639a.626.626,0,0,0,0-1.253H.626a.626.626,0,0,0,0,1.253H2.672v1.378a1.3,1.3,0,0,0,1.294,1.294H7.35c0,.014,0,.028,0,.042a3.967,3.967,0,0,0,7.933,0c0-.014,0-.028,0-.042H29.4c0,.014,0,.028,0,.042a3.967,3.967,0,1,0,7.933,0c0-.014,0-.028,0-.042h2.047A.626.626,0,0,0,40,28.017V21.336A3.3,3.3,0,0,0,37.2,18.075Zm-7.889-6.8h4.718a1.379,1.379,0,0,1,1.378,1.378v.042h-6.1Zm0,6.764V13.946h5.565L35.9,18.038Zm-18,13.361a2.714,2.714,0,1,1,2.714-2.714A2.717,2.717,0,0,1,11.315,31.4Zm22.046,0a2.714,2.714,0,1,1,2.714-2.714A2.717,2.717,0,0,1,33.361,31.4Zm5.386-8.017h-.71a.711.711,0,0,1-.71-.71v-.71h1.42v1.42Z" fill="#42cf92"/>
        </g>
      </g>
      <g id="Group_5" data-name="Group 5">
        <g id="Group_4" data-name="Group 4">
          <path id="Path_7" data-name="Path 7" d="M11.315,27.39a1.294,1.294,0,1,0,1.294,1.294A1.3,1.3,0,0,0,11.315,27.39Z" fill="#42cf92"/>
        </g>
      </g>
      <g id="Group_7" data-name="Group 7">
        <g id="Group_6" data-name="Group 6">
          <path id="Path_8" data-name="Path 8" d="M33.361,27.39a1.294,1.294,0,1,0,1.294,1.294A1.3,1.3,0,0,0,33.361,27.39Z" fill="#42cf92"/>
        </g>
      </g>
      <g id="Group_9" data-name="Group 9">
        <g id="Group_8" data-name="Group 8">
          <path id="Path_9" data-name="Path 9" d="M26.013,24.718H16.66a.626.626,0,0,0,0,1.253h9.353a.626.626,0,0,0,0-1.253Z" fill="#42cf92"/>
        </g>
      </g>
      <g id="Group_11" data-name="Group 11">
        <g id="Group_10" data-name="Group 10">
          <path id="Path_10" data-name="Path 10" d="M9.979,22.046H1.962a.626.626,0,0,0,0,1.253H9.979a.626.626,0,1,0,0-1.253Z" fill="#42cf92"/>
        </g>
      </g>
      <g id="Group_13" data-name="Group 13">
        <g id="Group_12" data-name="Group 12">
          <path id="Path_11" data-name="Path 11" d="M21.779,13.545a.626.626,0,0,0-.886,0l-5.57,5.57-2.9-2.9a.626.626,0,0,0-.886.886l3.34,3.34a.626.626,0,0,0,.886,0l6.013-6.013A.626.626,0,0,0,21.779,13.545Z" fill="#42cf92"/>
        </g>
      </g>
    </g>
  </g>
</svg>
