<svg xmlns="http://www.w3.org/2000/svg" xmlns:xlink="http://www.w3.org/1999/xlink" width="40" height="40" viewBox="0 0 40 40">
  <defs>
    <clipPath id="clip-path">
      <rect id="Rectangle_9" data-name="Rectangle 9" width="40" height="40" transform="translate(375.2 1462)" fill="#42cf92" stroke="#707070" stroke-width="1"/>
    </clipPath>
  </defs>
  <g id="Mask_Group_5" data-name="Mask Group 5" transform="translate(-375.2 -1462)" clip-path="url(#clip-path)">
    <g id="_1401918" data-name="1401918" transform="translate(375.2 1462)">
      <path id="Path_12" data-name="Path 12" d="M36.464,27.083l-8.077-1.794V24a7.128,7.128,0,0,0,2.733-3.36H32.9a2.583,2.583,0,0,0,2.581-2.581V13.548a2.572,2.572,0,0,0-1.29-2.222V8.5a3.47,3.47,0,0,0-2.116-3.2L31.924,5A9.019,9.019,0,0,0,14.839,9.032v2.294a2.572,2.572,0,0,0-1.29,2.222v4.516a2.583,2.583,0,0,0,2.581,2.581h1.783a7.128,7.128,0,0,0,2.733,3.36V25.29l-8.077,1.794a4.489,4.489,0,0,0-3.536,4.408V40H40V31.492a4.49,4.49,0,0,0-3.536-4.409Zm-7.522-.349-.959,3.834-2.455-1.636,2.419-2.419Zm-5.187,6.814h1.523L26.31,38.71H22.723Zm1.548-1.29H23.729l-.413-1.651,1.2-.8,1.2.8Zm8.891-14.194a1.292,1.292,0,0,1-1.29,1.29H31.49a7.082,7.082,0,0,0,.123-1.29V12.258H32.9a1.292,1.292,0,0,1,1.29,1.29ZM16.129,9.032A7.728,7.728,0,0,1,30.769,5.576l.387.771.254.085A2.183,2.183,0,0,1,32.9,8.506v2.462h-1.29V9.032h-1.29v1.522a3.684,3.684,0,0,1-1.547.4,4.97,4.97,0,0,0,.794-.923L28.5,9.32a3.689,3.689,0,0,1-2.947,1.64,5,5,0,0,0,.795-.924L25.27,9.32a3.689,3.689,0,0,1-2.947,1.64,5,5,0,0,0,.795-.924L22.044,9.32a3.694,3.694,0,0,1-3.079,1.648H18.71V9.032h-1.29v1.935h-1.29Zm0,10.323a1.292,1.292,0,0,1-1.29-1.29V13.548a1.292,1.292,0,0,1,1.29-1.29h1.29v5.806a7.082,7.082,0,0,0,.123,1.29Zm2.581-1.29V12.258h.255a4.986,4.986,0,0,0,2.326-.576v.576h.9a4.986,4.986,0,0,0,2.326-.576v.576h.9a4.986,4.986,0,0,0,2.326-.576v.576h.9a4.967,4.967,0,0,0,1.681-.3v6.111a5.789,5.789,0,0,1-.15,1.29h-3.2a1.933,1.933,0,0,0-1.817-1.29H23.87a1.935,1.935,0,0,0,0,3.871h1.29a1.933,1.933,0,0,0,1.817-1.29h2.732a5.8,5.8,0,0,1-11-2.581ZM25.806,20a.646.646,0,0,1-.645.645h-1.29a.645.645,0,0,1,0-1.29h1.29A.646.646,0,0,1,25.806,20Zm-1.29,5.161a7.046,7.046,0,0,0,2.581-.493v.871L24.516,28.12l-2.581-2.581v-.871A7.046,7.046,0,0,0,24.516,25.161Zm-3.432,1.352L23.5,28.932l-2.455,1.636-.959-3.834ZM10.323,31.492a3.207,3.207,0,0,1,2.526-3.149l5.983-1.33,1.41,5.644,1.935-1.29.388,1.552-1.158,5.79H15.484v-7.1h-1.29v7.1H10.323ZM38.71,38.71H34.839v-7.1h-1.29v7.1H27.626l-1.158-5.79.388-1.552,1.935,1.29,1.41-5.644,5.983,1.33a3.207,3.207,0,0,1,2.526,3.149Zm0,0" fill="#42cf92"/>
      <path id="Path_13" data-name="Path 13" d="M29.032,14.194a.645.645,0,1,1-.645-.645A.645.645,0,0,1,29.032,14.194Zm0,0" fill="#42cf92"/>
      <path id="Path_14" data-name="Path 14" d="M21.29,14.194a.645.645,0,1,1-.645-.645A.645.645,0,0,1,21.29,14.194Zm0,0" fill="#42cf92"/>
      <path id="Path_15" data-name="Path 15" d="M2.581,2.581H9.032v1.29H2.581Zm0,0" fill="#42cf92"/>
      <path id="Path_16" data-name="Path 16" d="M2.581,5.161H9.032v1.29H2.581Zm0,0" fill="#42cf92"/>
      <path id="Path_17" data-name="Path 17" d="M9.677,11.41V9.032h1.935V0H0V9.032H5.322ZM1.29,1.29h9.032V7.742H8.387V9.235L5.651,7.742H1.29Zm0,0" fill="#42cf92"/>
      <path id="Path_18" data-name="Path 18" d="M13.548,23.871H3.141l.73-1.095V12.258a1.935,1.935,0,0,0-3.871,0V22.776l1.59,2.385H13.548ZM1.935,11.613a.646.646,0,0,1,.645.645v1.29H1.29v-1.29A.646.646,0,0,1,1.935,11.613Zm0,11.74-.645-.968V14.839h1.29v7.546Zm0,0" fill="#42cf92"/>
      <path id="Path_19" data-name="Path 19" d="M12.258,21.29h1.29v1.29h-1.29Zm0,0" fill="#42cf92"/>
      <path id="Path_20" data-name="Path 20" d="M5.161,21.29h5.806v1.29H5.161Zm0,0" fill="#42cf92"/>
      <path id="Path_21" data-name="Path 21" d="M5.161,18.71h5.806V20H5.161Zm0,0" fill="#42cf92"/>
      <path id="Path_22" data-name="Path 22" d="M9.677,16.129h1.29v1.29H9.677Zm0,0" fill="#42cf92"/>
      <path id="Path_23" data-name="Path 23" d="M5.161,16.129H8.387v1.29H5.161Zm0,0" fill="#42cf92"/>
    </g>
  </g>
</svg>
