<svg xmlns="http://www.w3.org/2000/svg" xmlns:xlink="http://www.w3.org/1999/xlink" width="25" height="25" viewBox="0 0 25 25">
  <defs>
    <clipPath id="clip-path">
      <rect id="Rectangle_659" data-name="Rectangle 659" width="25" height="25" transform="translate(15 170)" fill="#fff"/>
    </clipPath>
  </defs>
  <g id="Mask_Group_451" data-name="Mask Group 451" transform="translate(-15 -170)" clip-path="url(#clip-path)">
    <g id="_846449" data-name="846449" transform="translate(15 170.619)">
      <g id="Group_624" data-name="Group 624" transform="translate(0)">
        <path id="Path_449" data-name="Path 449" d="M24.58,11.151,22.468,9.227V2.846a.735.735,0,0,0-.735-.735H16.649a.735.735,0,0,0-.735.735v.409L13.363.931a1.276,1.276,0,0,0-1.727,0L.42,11.151a1.282,1.282,0,0,0,.864,2.23H3.075v10.24a.735.735,0,0,0,.735.735H9.958a.735.735,0,0,0,.735-.735V17.4h3.613v6.218a.735.735,0,0,0,.735.735H21.19a.735.735,0,0,0,.735-.735V13.381h1.792a1.282,1.282,0,0,0,.863-2.23Zm-3.39.759a.735.735,0,0,0-.735.735v10.24H15.777V16.668a.735.735,0,0,0-.735-.735H9.958a.735.735,0,0,0-.735.735v6.218H4.545V12.646a.735.735,0,0,0-.735-.735H1.77L12.5,2.133l3.654,3.33a.735.735,0,0,0,1.23-.543V3.581H21V9.552a.735.735,0,0,0,.24.543L23.23,11.91H21.19Z" transform="translate(0 -0.594)"/>
      </g>
    </g>
  </g>
</svg>
