<svg xmlns="http://www.w3.org/2000/svg" xmlns:xlink="http://www.w3.org/1999/xlink" width="20" height="23" viewBox="0 0 20 23">
  <defs>
    <clipPath id="clip-path">
      <rect id="Rectangle_36" data-name="Rectangle 36" width="20" height="23" transform="translate(474.976 2363.333)" fill="#fff" stroke="#707070" stroke-width="1"/>
    </clipPath>
  </defs>
  <g id="Mask_Group_15" data-name="Mask Group 15" transform="translate(-474.976 -2363.333)" opacity="0.8" clip-path="url(#clip-path)">
    <g id="_709625" data-name="709625" transform="translate(475.01 2365.568)">
      <g id="Group_39" data-name="Group 39">
        <path id="Path_59" data-name="Path 59" d="M19.606,10.04,17.3,5.18h1.671a.606.606,0,0,0,.55-.632.606.606,0,0,0-.55-.632H11.887A1.989,1.989,0,0,0,9.413,2.337,2.169,2.169,0,0,0,8.038,3.917H.975a.606.606,0,0,0-.55.632.606.606,0,0,0,.55.632H2.646L.34,10.04A.617.617,0,0,0,0,10.648a3.878,3.878,0,0,0,3.574,4.107A3.878,3.878,0,0,0,7.15,10.648a.651.651,0,0,0-.338-.583L4.485,5.156h3.6A2.169,2.169,0,0,0,9.455,6.735v9.137A3.475,3.475,0,0,0,6.9,19.4a.606.606,0,0,0,.55.632h5.139a.606.606,0,0,0,.55-.632,3.494,3.494,0,0,0-2.559-3.523V6.76A2.167,2.167,0,0,0,11.951,5.18h3.6l-2.369,4.86a.6.6,0,0,0-.36.607,3.878,3.878,0,0,0,3.574,4.107,3.878,3.878,0,0,0,3.574-4.107A.632.632,0,0,0,19.606,10.04ZM5.543,9.992H1.609L3.576,5.836Zm8.9,0,1.967-4.155L18.38,9.992Z" transform="translate(0 -2.252)"/>
      </g>
    </g>
  </g>
</svg>
