<svg xmlns="http://www.w3.org/2000/svg" xmlns:xlink="http://www.w3.org/1999/xlink" width="25" height="25" viewBox="0 0 25 25">
  <defs>
    <clipPath id="clip-path">
      <rect id="Rectangle_29" data-name="Rectangle 29" width="25" height="25" transform="translate(794 2670)" fill="#fff" stroke="#707070" stroke-width="1"/>
    </clipPath>
  </defs>
  <g id="Mask_Group_8" data-name="Mask Group 8" transform="translate(-794 -2670)" clip-path="url(#clip-path)">
    <g id="_481300" data-name="481300" transform="translate(794 2670)">
      <g id="Group_2" data-name="Group 2">
        <path id="Path_36" data-name="Path 36" d="M22.994,16.41a14.194,14.194,0,0,1-4.458-.71,1.962,1.962,0,0,0-1.982.418l-2.811,2.122a15.535,15.535,0,0,1-6.984-6.983l2.06-2.738a2.021,2.021,0,0,0,.5-2.047A14.216,14.216,0,0,1,8.6,2.006,2.008,2.008,0,0,0,6.6,0H2.006A2.008,2.008,0,0,0,0,2.006,23.02,23.02,0,0,0,22.994,25,2.008,2.008,0,0,0,25,22.994V18.416A2.008,2.008,0,0,0,22.994,16.41Zm.617,6.584a.618.618,0,0,1-.617.617A21.629,21.629,0,0,1,1.389,2.006a.618.618,0,0,1,.617-.617H6.6a.618.618,0,0,1,.617.617,15.574,15.574,0,0,0,.78,4.89.691.691,0,0,1-.22.712L5.387,10.77a.7.7,0,0,0-.065.733,17.24,17.24,0,0,0,8.173,8.173.692.692,0,0,0,.735-.064l3.234-2.45a.613.613,0,0,1,.629-.146,15.6,15.6,0,0,0,4.9.783.618.618,0,0,1,.617.617Z"/>
      </g>
    </g>
  </g>
</svg>
