<svg xmlns="http://www.w3.org/2000/svg" xmlns:xlink="http://www.w3.org/1999/xlink" width="113" height="17" viewBox="0 0 113 17">
  <defs>
    <clipPath id="clip-path">
      <rect id="Rectangle_404" data-name="Rectangle 404" width="17" height="17" transform="translate(0 0.215)" fill="#fff" stroke="#707070" stroke-width="1"/>
    </clipPath>
  </defs>
  <g id="Group_845" data-name="Group 845" transform="translate(-608 -464)">
    <g id="Mask_Group_250" data-name="Mask Group 250" transform="translate(608 463.785)" clip-path="url(#clip-path)">
      <path id="_1828884" data-name="1828884" d="M16.956,6.166a.9.9,0,0,0-.778-.621L11.271,5.1,9.331.558a.9.9,0,0,0-1.662,0L5.729,5.1.822,5.545A.9.9,0,0,0,.309,7.126l3.709,3.253L2.924,15.2a.9.9,0,0,0,1.344.976L8.5,13.643l4.231,2.53a.9.9,0,0,0,1.344-.976l-1.094-4.818,3.709-3.252a.9.9,0,0,0,.265-.96Zm0,0" transform="translate(0 0.345)" fill="#ffc107"/>
    </g>
    <g id="Mask_Group_251" data-name="Mask Group 251" transform="translate(632 463.785)" clip-path="url(#clip-path)">
      <path id="_1828884-2" data-name="1828884" d="M16.956,6.166a.9.9,0,0,0-.778-.621L11.271,5.1,9.331.558a.9.9,0,0,0-1.662,0L5.729,5.1.822,5.545A.9.9,0,0,0,.309,7.126l3.709,3.253L2.924,15.2a.9.9,0,0,0,1.344.976L8.5,13.643l4.231,2.53a.9.9,0,0,0,1.344-.976l-1.094-4.818,3.709-3.252a.9.9,0,0,0,.265-.96Zm0,0" transform="translate(0 0.345)" fill="#ffc107"/>
    </g>
    <g id="Mask_Group_252" data-name="Mask Group 252" transform="translate(656 463.785)" clip-path="url(#clip-path)">
      <path id="_1828884-3" data-name="1828884" d="M16.956,6.166a.9.9,0,0,0-.778-.621L11.271,5.1,9.331.558a.9.9,0,0,0-1.662,0L5.729,5.1.822,5.545A.9.9,0,0,0,.309,7.126l3.709,3.253L2.924,15.2a.9.9,0,0,0,1.344.976L8.5,13.643l4.231,2.53a.9.9,0,0,0,1.344-.976l-1.094-4.818,3.709-3.252a.9.9,0,0,0,.265-.96Zm0,0" transform="translate(0 0.345)" fill="#ffc107"/>
    </g>
    <g id="Mask_Group_254" data-name="Mask Group 254" transform="translate(704 463.785)" clip-path="url(#clip-path)">
      <path id="_1828884-4" data-name="1828884" d="M16.956,6.166a.9.9,0,0,0-.778-.621L11.271,5.1,9.331.558a.9.9,0,0,0-1.662,0L5.729,5.1.822,5.545A.9.9,0,0,0,.309,7.126l3.709,3.253L2.924,15.2a.9.9,0,0,0,1.344.976L8.5,13.643l4.231,2.53a.9.9,0,0,0,1.344-.976l-1.094-4.818,3.709-3.252a.9.9,0,0,0,.265-.96Zm0,0" transform="translate(0 0.345)" fill="#ffc107"/>
    </g>
    <g id="Mask_Group_253" data-name="Mask Group 253" transform="translate(680 463.785)" clip-path="url(#clip-path)">
      <path id="_1828884-5" data-name="1828884" d="M16.956,6.166a.9.9,0,0,0-.778-.621L11.271,5.1,9.331.558a.9.9,0,0,0-1.662,0L5.729,5.1.822,5.545A.9.9,0,0,0,.309,7.126l3.709,3.253L2.924,15.2a.9.9,0,0,0,1.344.976L8.5,13.643l4.231,2.53a.9.9,0,0,0,1.344-.976l-1.094-4.818,3.709-3.252a.9.9,0,0,0,.265-.96Zm0,0" transform="translate(0 0.345)" fill="#ffc107"/>
    </g>
  </g>
</svg>
