<svg xmlns="http://www.w3.org/2000/svg" xmlns:xlink="http://www.w3.org/1999/xlink" width="20" height="20" viewBox="0 0 20 20">
  <defs>
    <clipPath id="clip-path">
      <rect id="Rectangle_5" data-name="Rectangle 5" width="20" height="20" transform="translate(1259 55)" fill="#fff" stroke="#707070" stroke-width="1"/>
    </clipPath>
  </defs>
  <g id="Mask_Group_2" data-name="Mask Group 2" transform="translate(-1259 -55)" clip-path="url(#clip-path)">
    <g id="_1828453" data-name="1828453" transform="translate(1259 56.25)">
      <path id="Path_1" data-name="Path 1" d="M8.333,8.333A4.167,4.167,0,1,1,12.5,4.167,4.171,4.171,0,0,1,8.333,8.333Zm0-7.083A2.917,2.917,0,1,0,11.25,4.167,2.92,2.92,0,0,0,8.333,1.25Zm0,0" transform="translate(-0.833 0)"/>
      <path id="Path_2" data-name="Path 2" d="M14.375,20H.625A.625.625,0,0,1,0,19.375V16.458A3.963,3.963,0,0,1,3.958,12.5h7.083A3.963,3.963,0,0,1,15,16.458v2.917A.625.625,0,0,1,14.375,20ZM1.25,18.75h12.5V16.458a2.711,2.711,0,0,0-2.708-2.708H3.958A2.711,2.711,0,0,0,1.25,16.458Zm0,0" transform="translate(0 -2.5)"/>
      <path id="Path_3" data-name="Path 3" d="M22.291,10.365H15.208a.625.625,0,1,1,0-1.25h7.083a.625.625,0,1,1,0,1.25Zm0,0" transform="translate(-2.917 -1.823)"/>
      <path id="Path_4" data-name="Path 4" d="M19.9,12.864a.625.625,0,0,1-.442-1.067l2.892-2.892L19.454,6.014a.625.625,0,1,1,.884-.884l3.333,3.333a.625.625,0,0,1,0,.884L20.338,12.68a.621.621,0,0,1-.442.184Zm0,0" transform="translate(-3.854 -0.99)"/>
    </g>
  </g>
</svg>
