<svg xmlns="http://www.w3.org/2000/svg" xmlns:xlink="http://www.w3.org/1999/xlink" width="27" height="27" viewBox="0 0 27 27">
  <defs>
    <clipPath id="clip-path">
      <rect id="Rectangle_741" data-name="Rectangle 741" width="27" height="27" transform="translate(69.75 3243)" fill="#42cf92" stroke="#707070" stroke-width="1"/>
    </clipPath>
  </defs>
  <g id="Mask_Group_506" data-name="Mask Group 506" transform="translate(-69.75 -3243)" clip-path="url(#clip-path)">
    <g id="_875100" data-name="875100" transform="translate(69.75 3243)">
      <g id="Group_832" data-name="Group 832">
        <g id="Group_831" data-name="Group 831">
          <path id="Path_534" data-name="Path 534" d="M23.143,0a.964.964,0,0,0-.964.964V4.487A12.512,12.512,0,0,0,.964,13.5a.964.964,0,1,0,1.929,0A10.607,10.607,0,0,1,21.324,6.34L17.052,7.764A.965.965,0,1,0,17.662,9.6l5.786-1.929a.964.964,0,0,0,.66-.918V.964A.964.964,0,0,0,23.143,0Z" fill="#42cf92"/>
        </g>
      </g>
      <g id="Group_834" data-name="Group 834">
        <g id="Group_833" data-name="Group 833">
          <path id="Path_535" data-name="Path 535" d="M25.071,12.536a.964.964,0,0,0-.964.964A10.607,10.607,0,0,1,5.676,20.66l4.272-1.424A.965.965,0,1,0,9.338,17.4L3.552,19.332a.964.964,0,0,0-.66.918v5.786a.964.964,0,1,0,1.929,0V22.513A12.512,12.512,0,0,0,26.036,13.5.964.964,0,0,0,25.071,12.536Z" fill="#42cf92"/>
        </g>
      </g>
    </g>
  </g>
</svg>
